HIERARCHY
ROOT Hips
{
	OFFSET 209.307602 92.720032 -309.275604
	CHANNELS 6 Xposition Yposition Zposition Zrotation Yrotation Xrotation 
	JOINT LeftUpLeg
	{
		OFFSET 0.103461 1.857818 10.548512
		CHANNELS 3 Zrotation Yrotation Xrotation
		JOINT LeftLeg
		{
			OFFSET 43.500000 -0.000019 0.000004
			CHANNELS 3 Zrotation Yrotation Xrotation
			JOINT LeftFoot
			{
				OFFSET 42.372200 0.000011 0.000000
				CHANNELS 3 Zrotation Yrotation Xrotation
				JOINT LeftToe
				{
					OFFSET 17.300009 0.000002 0.000004
					CHANNELS 3 Zrotation Yrotation Xrotation
					End Site
					{
						OFFSET 0.000000 0.000000 0.000000
					}
				}
			}
		}
	}
	JOINT RightUpLeg
	{
		OFFSET 0.103461 1.857838 -10.548504
		CHANNELS 3 Zrotation Yrotation Xrotation
		JOINT RightLeg
		{
			OFFSET 43.500042 -0.000038 0.000017
			CHANNELS 3 Zrotation Yrotation Xrotation
			JOINT RightFoot
			{
				OFFSET 42.372253 -0.000008 0.000015
				CHANNELS 3 Zrotation Yrotation Xrotation
				JOINT RightToe
				{
					OFFSET 17.299995 -0.000004 0.000004
					CHANNELS 3 Zrotation Yrotation Xrotation
					End Site
					{
						OFFSET 0.000000 0.000000 0.000000
					}
				}
			}
		}
	}
	JOINT Spine
	{
		OFFSET 6.901970 -2.603733 -0.000002
		CHANNELS 3 Zrotation Yrotation Xrotation
		JOINT Spine1
		{
			OFFSET 12.588097 0.000016 0.000005
			CHANNELS 3 Zrotation Yrotation Xrotation
			JOINT Spine2
			{
				OFFSET 12.343206 -0.000008 -0.000008
				CHANNELS 3 Zrotation Yrotation Xrotation
				JOINT Neck
				{
					OFFSET 25.832890 -0.000023 0.000008
					CHANNELS 3 Zrotation Yrotation Xrotation
					JOINT Head
					{
						OFFSET 11.766625 0.000019 -0.000006
						CHANNELS 3 Zrotation Yrotation Xrotation
						End Site
						{
							OFFSET 0.000000 0.000000 0.000000
						}
					}
				}
				JOINT LeftShoulder
				{
					OFFSET 19.745903 -1.480385 6.000111
					CHANNELS 3 Zrotation Yrotation Xrotation
					JOINT LeftArm
					{
						OFFSET 11.284122 -0.000021 -0.000025
						CHANNELS 3 Zrotation Yrotation Xrotation
						JOINT LeftForeArm
						{
							OFFSET 33.000057 -0.000001 0.000032
							CHANNELS 3 Zrotation Yrotation Xrotation
							JOINT LeftHand
							{
								OFFSET 25.200003 0.000023 0.000006
								CHANNELS 3 Zrotation Yrotation Xrotation
								End Site
								{
									OFFSET 0.000000 0.000000 0.000000
								}
							}
						}
					}
				}
				JOINT RightShoulder
				{
					OFFSET 19.746098 -1.480366 -6.000072
					CHANNELS 3 Zrotation Yrotation Xrotation
					JOINT RightArm
					{
						OFFSET 11.284136 -0.000004 -0.000006
						CHANNELS 3 Zrotation Yrotation Xrotation
						JOINT RightForeArm
						{
							OFFSET 33.000092 0.000029 0.000002
							CHANNELS 3 Zrotation Yrotation Xrotation
							JOINT RightHand
							{
								OFFSET 25.199776 0.000140 0.000420
								CHANNELS 3 Zrotation Yrotation Xrotation
								End Site
								{
									OFFSET 0.000000 0.000000 0.000000
								}
							}
						}
					}
				}
			}
		}
	}
}
MOTION
Frames: 12
Frame Time: 0.033333
-280.162994 90.833603 -351.244904 100.060502 7.146041 -177.527490 -177.892495 -8.017303 173.491750 -28.837496 -3.131491 3.642319 92.538552 -1.874833 3.633972 21.454551 0.003092 0.000000 138.045172 3.941696 -171.359638 -118.988698 -3.549322 -0.255318 79.359831 3.915609 13.905761 21.454562 -0.003106 -0.000020 8.978732 -3.271544 0.599170 7.929607 -6.576329 0.974266 7.609269 -6.570187 1.014137 10.515815 2.698094 -2.253880 -15.221684 9.575637 -5.500980 -159.546307 -84.017419 -22.253644 -23.919391 47.567049 0.110285 -81.903530 -12.130883 2.798350 -32.608201 -14.060200 41.150172 163.992200 73.182984 -15.032311 -1.111717 -52.033262 -38.120266 -45.184170 19.132041 -1.903311 -4.548393 27.336522 -11.637827 
-278.936401 90.697891 -351.357208 101.315003 6.656176 -176.930095 -175.674801 -7.755997 173.088550 -28.450304 -3.184119 4.155811 92.939402 -2.218129 3.703367 21.454551 0.003092 0.000000 136.730975 4.783403 -170.517298 -119.022398 -3.522201 -0.248769 78.943101 3.943994 13.842711 21.454565 -0.003107 -0.000018 8.926900 -3.322397 0.446344 7.834705 -6.667284 0.667785 7.514283 -6.662991 0.708224 11.359227 3.161096 -2.135270 -14.357041 9.579891 -5.292739 -160.908356 -84.155813 -20.877120 -23.398507 48.138746 0.128279 -82.877297 -11.370570 2.787459 -34.498278 -17.283760 39.854191 164.614417 73.224266 -14.393338 -0.671780 -51.768210 -39.761045 -44.274970 18.747105 -1.850682 -6.243548 29.710305 -12.578405 
-277.533997 90.550858 -351.495789 102.685296 6.151869 -176.335800 -173.155158 -7.466402 172.720048 -27.928847 -3.192292 4.639016 93.368078 -2.545914 3.750481 21.454550 0.003091 0.000000 135.341223 5.929903 -169.789719 -118.877079 -3.499804 -0.114994 78.368914 3.982313 14.077892 21.454577 -0.003106 -0.000021 8.826232 -3.369316 0.302688 7.641558 -6.751186 0.382861 7.321055 -6.748616 0.423819 12.676165 3.614835 -1.972400 -13.090034 9.570875 -5.021596 -162.191817 -84.267623 -19.580448 -22.759812 48.612799 0.774279 -83.616043 -10.749760 2.776189 -35.295040 -18.922120 39.043322 165.384807 73.350966 -13.599131 0.039546 -51.708415 -41.541193 -43.294097 18.473783 -1.803976 -7.748813 33.170281 -13.269868 
-275.963501 90.359016 -351.658600 104.184407 5.710976 -175.904200 -170.371679 -7.147202 172.674436 -27.402482 -3.222320 4.828555 93.950406 -2.690764 3.714546 21.454551 0.003091 0.000000 133.989037 7.029999 -169.274518 -118.580485 -3.477077 0.030034 78.027391 3.963672 14.238989 21.454543 -0.003111 -0.000016 8.669054 -3.394590 0.209809 7.332038 -6.795594 0.204535 7.011477 -6.794096 0.245768 14.376179 4.012040 -1.762706 -11.471806 9.566472 -4.699705 -162.434015 -84.290921 -19.335922 -22.160062 48.991086 1.846596 -84.206015 -10.239530 2.766228 -35.220700 -19.448955 38.339918 166.173790 73.602050 -12.781061 1.344733 -51.796791 -43.422255 -42.538958 18.321414 -1.772299 -8.555568 36.408764 -13.584647 
-274.263489 90.103844 -351.831207 105.825599 5.377103 -175.565505 -167.406980 -6.873994 173.005618 -26.980697 -3.305091 4.734910 94.739963 -2.653969 3.644299 21.454551 0.003091 0.000001 132.714824 7.947403 -168.842700 -118.117508 -3.448214 0.186880 77.712280 3.783409 13.858221 21.454551 -0.003108 -0.000016 8.493249 -3.383763 0.147613 6.983156 -6.770225 0.091091 6.662607 -6.769413 0.132169 16.230187 4.402574 -1.509878 -9.906526 9.524012 -4.346453 -161.857793 -84.230207 -19.918066 -21.637954 49.319645 2.972193 -84.816203 -9.746681 2.758433 -34.745326 -19.329820 37.573147 167.009518 73.900857 -11.913821 3.092534 -51.790189 -45.246551 -42.068252 18.184689 -1.750008 -8.789907 38.724632 -13.574783 
-272.482697 89.830917 -351.991486 107.554094 5.160950 -175.139014 -164.376098 -6.792008 173.423831 -26.663312 -3.409226 4.630889 95.577760 -2.608672 3.599128 21.454557 0.003092 0.000000 131.563076 8.785996 -168.378452 -117.357499 -3.411287 0.427905 77.297217 3.623598 13.733262 21.454558 -0.003109 -0.000019 8.328430 -3.335056 0.069049 6.656858 -6.668542 -0.053686 6.336387 -6.668612 -0.013228 18.068999 4.898572 -1.228260 -8.775167 9.331893 -3.973871 -161.952063 -84.168708 -19.823415 -21.071550 49.643830 3.942141 -85.540497 -9.188046 2.751102 -34.248215 -18.969962 36.808047 168.032093 74.174980 -10.856872 4.894596 -51.564073 -46.952756 -41.680137 18.001411 -1.727154 -8.841711 40.147579 -13.488245 
-270.616486 89.491333 -352.127289 109.276804 4.799548 -174.551891 -161.432341 -6.769699 173.617125 -26.597851 -3.477627 4.793899 96.427217 -2.737560 3.593205 21.454550 0.003092 -0.000000 130.435180 9.804795 -167.999294 -116.333080 -3.366258 0.722825 76.805955 3.490025 13.811646 21.454557 -0.003110 -0.000016 8.176886 -3.307739 -0.055881 6.359942 -6.607426 -0.293590 6.039553 -6.608941 -0.253501 19.802467 5.510156 -0.970487 -8.033574 8.980265 -3.632726 -163.664283 -84.141572 -18.095657 -20.370503 49.896120 4.798700 -86.371813 -8.550009 2.742977 -33.735448 -18.704051 35.902954 169.487675 74.353911 -9.360860 6.596019 -51.098506 -48.613359 -41.217258 17.782573 -1.700034 -8.747723 40.862420 -13.350510 
-268.667206 89.100883 -352.242004 110.921309 4.211336 -173.752813 -158.668696 -6.750106 173.661043 -26.792901 -3.451597 5.226080 97.206760 -3.046607 3.550742 21.454555 0.003092 -0.000000 129.360477 11.116701 -167.689422 -114.971809 -3.299168 0.979412 76.266295 3.281428 13.519840 21.454563 -0.003107 -0.000017 8.028786 -3.323605 -0.233242 6.073443 -6.630468 -0.641221 5.753030 -6.634084 -0.600988 21.290494 6.099804 -0.840378 -7.285875 8.641453 -3.437753 -165.751588 -84.106847 -15.989053 -19.793813 50.042590 5.616789 -87.154867 -7.972288 2.737028 -33.328543 -18.529637 35.304152 171.367807 74.352340 -7.436771 8.396415 -50.431723 -50.213990 -40.796040 17.541778 -1.672776 -8.390455 40.976152 -13.028339 
-266.711792 88.771881 -352.327789 112.444400 3.585413 -172.657702 -156.197793 -6.983704 173.785011 -27.203964 -3.426107 5.815302 97.723498 -3.461419 3.425968 21.454551 0.003092 -0.000000 128.523683 12.713106 -167.333132 -112.961903 -3.181109 1.007727 75.643068 3.342197 13.563912 21.454557 -0.003109 -0.000017 7.875274 -3.348603 -0.462257 5.779338 -6.670096 -1.092490 5.458934 -6.676431 -1.052010 22.434564 6.467273 -0.938701 -6.265663 8.563280 -3.520148 -165.973310 -84.086192 -15.765299 -19.879358 50.237513 6.491181 -87.375939 -7.858414 2.738818 -33.705105 -18.392955 36.252879 173.496818 74.174857 -5.262227 10.482276 -49.683151 -51.735872 -40.568428 17.283088 -1.649714 -7.830482 40.663641 -12.497229 
-264.770905 88.437668 -352.371887 113.796204 2.801408 -171.285708 -154.242337 -7.475908 173.905700 -28.203128 -3.451209 6.685172 98.083354 -4.062489 3.238448 21.454557 0.003091 0.000000 127.933719 14.515105 -167.079678 -110.264901 -3.015245 0.873996 74.791172 3.570455 13.685889 21.454551 -0.003110 -0.000018 7.713224 -3.412940 -0.739458 5.471922 -6.787355 -1.641723 5.151519 -6.797007 -1.600524 23.271689 6.586339 -1.245631 -5.080474 8.773421 -3.858930 -164.526990 -84.205762 -17.224390 -20.774369 50.668638 7.687206 -86.346487 -8.662602 2.749764 -35.389614 -18.576641 38.972325 175.642713 73.946538 -3.069938 12.900812 -48.986301 -53.417974 -40.425393 17.017194 -1.628524 -7.151584 40.220074 -11.763181 
-262.851501 88.013443 -352.394287 114.982396 1.883573 -169.741389 -152.785854 -8.275496 173.835773 -29.848002 -3.476730 8.068467 98.550839 -5.010574 2.987531 21.454558 0.003091 0.000001 127.725931 16.273103 -166.911314 -106.800799 -2.787458 0.527460 74.111534 3.692962 13.042688 21.454553 -0.003109 -0.000015 7.555981 -3.513626 -1.036046 5.176819 -6.977769 -2.231659 4.856363 -6.990976 -2.189299 23.869416 6.614775 -1.612051 -4.034979 9.069923 -4.270071 -164.396629 -84.455071 -17.354271 -21.967480 51.281275 9.348418 -83.930922 -10.333561 2.760737 -37.727673 -19.334497 41.823154 177.883425 73.828806 -0.775866 15.432271 -48.474918 -55.460651 -40.097203 16.698006 -1.598923 -6.278986 39.865198 -10.680232 
-260.936615 87.536057 -352.416504 116.058684 0.960270 -168.266997 -151.541817 -9.209397 173.648202 -31.734961 -3.415545 9.607512 99.052127 -6.082720 2.480539 21.454553 0.003092 -0.000001 128.104446 17.806597 -166.968469 -102.398012 -2.474470 -0.107794 73.425544 4.184125 12.928671 21.454560 -0.003108 -0.000018 7.417486 -3.623236 -1.289795 4.917902 -7.188886 -2.736990 4.597435 -7.205140 -2.693342 24.202190 6.687429 -1.909462 -3.299173 9.260450 -4.590755 -167.607679 -84.615880 -14.114719 -22.765886 51.846914 11.301367 -80.871639 -12.245563 2.761269 -39.347429 -20.228350 43.291491 -179.583500 73.874950 1.822451 17.884593 -48.156734 -57.821274 -39.551051 16.247794 -1.555180 -5.180783 39.595215 -9.207683 
